<svg xmlns="http://www.w3.org/2000/svg" width="256" height="256" viewBox="0 0 256 256" role="img" aria-label="Teahouse icon">

<defs>
  <linearGradient id="markGreen" x1="35" y1="12" x2="213" y2="228" gradientUnits="userSpaceOnUse">
    <stop offset="0" stop-color="#91d354"/>
    <stop offset="0.36" stop-color="#54be43"/>
    <stop offset="0.72" stop-color="#28a84c"/>
    <stop offset="1" stop-color="#16984a"/>
  </linearGradient>
  <linearGradient id="bgGreen" x1="20" y1="4" x2="222" y2="242" gradientUnits="userSpaceOnUse">
    <stop offset="0" stop-color="#2fb857"/>
    <stop offset="0.55" stop-color="#21a34b"/>
    <stop offset="1" stop-color="#178f43"/>
  </linearGradient>
  <linearGradient id="bgDarkGreen" x1="16" y1="5" x2="224" y2="241" gradientUnits="userSpaceOnUse">
    <stop offset="0" stop-color="#173a2b"/>
    <stop offset="0.7" stop-color="#0d271d"/>
    <stop offset="1" stop-color="#091b15"/>
  </linearGradient>
  <radialGradient id="softPale" cx="31%" cy="19%" r="78%">
    <stop offset="0" stop-color="#e8f9df"/>
    <stop offset="0.68" stop-color="#eff9ea"/>
    <stop offset="1" stop-color="#e7f3df"/>
  </radialGradient>
  <radialGradient id="cardWhite" cx="31%" cy="20%" r="82%">
    <stop offset="0" stop-color="#ffffff"/>
    <stop offset="0.74" stop-color="#fbfcfb"/>
    <stop offset="1" stop-color="#f4f6f5"/>
  </radialGradient>
  <filter id="cardShadow" x="-20%" y="-20%" width="140%" height="145%">
    <feDropShadow dx="0" dy="10" stdDeviation="14" flood-color="#10251b" flood-opacity="0.14"/>
  </filter>
  <filter id="softShadow" x="-20%" y="-20%" width="140%" height="145%">
    <feDropShadow dx="0" dy="7" stdDeviation="8" flood-color="#12271e" flood-opacity="0.12"/>
  </filter>
</defs>

<path d="M0 90.07C-4.04 103.43 -1.65 136.94 0 151.18C0.91 158.99 1.87 162.64 4.21 169.09C7.22 177.42 12.35 188.54 17.91 196.48C23.04 203.81 34.49 208.04 35.82 215.44C37.24 223.34 25.45 236.82 24.23 242.83C23.67 245.6 23.5 247.38 24.23 249.15C24.94 250.87 25.92 252.68 28.44 253.37C36.36 255.53 69.02 240.43 85.33 238.62C97.29 237.3 106.86 240.83 116.94 239.67C126.48 238.57 135.47 236.12 144.33 232.3C153.77 228.23 163.51 222.63 171.72 215.44C180.49 207.76 186.3 191.09 194.9 187C201.42 183.9 209.17 188.37 215.97 187C222.87 185.61 230.41 182.48 235.98 178.57C241.14 174.95 245.44 169.92 248.63 164.87C251.68 160.05 253.87 154.69 254.95 149.07C256.09 143.14 256.35 136.36 254.95 130.11C253.43 123.35 250 115.69 245.47 110.09C240.9 104.44 234.08 99.19 227.56 96.4C221.38 93.75 212.14 96.6 207.54 93.23C203.39 90.19 203.75 82.49 200.16 78.49C196.45 74.36 193.53 71.38 185.42 69C160.59 61.7 42.99 63.83 21.07 69C15.2 70.39 13.71 71.46 10.53 74.27C6.49 77.84 2.25 82.62 0 90.07ZM22.12 95.34C23.4 92.26 23.92 91.51 27.39 90.07C43.05 83.58 163.43 83.58 179.09 90.07C182.56 91.51 183.08 92.25 184.36 95.34C187.8 103.64 185.93 136.28 184.36 149.07C183.47 156.35 182.12 160.6 180.15 165.93C178.23 171.12 176.3 175.51 172.77 180.67C168.03 187.61 159.69 197.15 152.76 202.8C146.97 207.51 141.75 210.61 134.85 213.33C126.67 216.55 115.1 218.93 106.4 219.65C99.19 220.25 93.63 217.78 86.39 218.6C77.43 219.62 60.25 228.98 56.89 227.03C55.62 226.3 55.82 224.66 55.84 222.81C55.87 219.22 61.56 212.08 60.05 207.01C58.07 200.34 44.76 195.39 38.98 188.05C33.16 180.66 28.04 170.25 25.28 162.77C23.28 157.35 22.81 154.5 22.12 148.02C20.84 135.91 18.73 103.53 22.12 95.34ZM165.4 3.69C164.94 2.58 164.47 2.07 163.29 1.58C160.57 0.45 152.43 0.97 147.49 1.58C143.01 2.13 138.88 3.17 134.85 4.74C130.8 6.32 126.99 7.96 123.26 11.06C118.47 15.04 112.54 21.95 109.56 27.92C106.89 33.26 105.78 39.52 105.35 44.77C104.99 49.26 104.83 55.11 106.4 57.42C107.35 58.83 108.74 59.08 110.62 59.52C113.82 60.27 119.4 60.4 124.31 59.52C130.44 58.43 138.86 55.65 144.33 52.15C149.12 49.09 153 44.44 155.92 40.56C158.3 37.41 159.72 34.8 161.19 31.08C163.05 26.37 164.79 19.22 165.4 14.22C165.88 10.33 166.26 5.77 165.4 3.69ZM208.59 113.25C211.07 112.54 218.51 114.32 222.29 116.41C225.77 118.34 228.6 121.63 230.72 124.84C232.78 127.97 234.3 132.11 234.93 135.37C235.44 138 235.4 140.06 234.93 142.75C234.32 146.23 232.92 150.88 230.72 154.34C228.42 157.94 225.24 161.71 221.23 163.82C216.7 166.21 207.22 167.86 204.38 166.98C203.19 166.61 202.63 166.08 202.27 164.87C201.33 161.69 205.72 152.22 206.49 144.86C207.41 136.02 204.82 119.41 206.49 115.36C207.02 114.07 207.45 113.58 208.59 113.25ZM68.48 16.33C65.82 17.95 66 25.59 66.37 30.02C66.74 34.37 68.24 38.89 70.58 42.67C73.05 46.67 77.03 50.74 81.12 53.2C85.13 55.61 92.32 58.04 94.81 57.42C95.95 57.14 96.43 56.49 96.92 55.31C98.05 52.59 97.88 44.02 96.92 39.51C96.14 35.85 94.7 32.92 92.71 30.02C90.58 26.91 87.84 23.8 84.28 21.6C80.07 19 71.4 14.55 68.48 16.33Z" fill="url(#markGreen)" fill-rule="evenodd"/>
  <circle cx="63.9" cy="149.48" r="10.94" fill="url(#markGreen)"/>
  <circle cx="103.71" cy="149.48" r="10.94" fill="url(#markGreen)"/>
  <circle cx="143.52" cy="149.48" r="10.94" fill="url(#markGreen)"/>
</svg>
