<svg xmlns="http://www.w3.org/2000/svg" width="64" height="64" viewBox="0 0 64 64" fill="none">
  <title>茶话间彩色小 logo</title>
  <path d="M25 22h18c3.9 0 7 3.1 7 7v7c0 7.7-6.3 14-14 14h-8.4L20 55v-7.1c-3.7-2.4-6-6.5-6-11V29c0-3.9 3.1-7 7-7h4Z" fill="#EAF5EF" stroke="#3D8B6B" stroke-width="3.8" stroke-linecap="round" stroke-linejoin="round" />
  <path d="M50 31h1.8a7.2 7.2 0 0 1 0 14.4H48" stroke="#3D8B6B" stroke-width="3.8" stroke-linecap="round" stroke-linejoin="round" />
  <path d="M24 31.5h20" stroke="#C49745" stroke-width="3.8" stroke-linecap="round" />
  <path d="M27.5 15.5c-2-2.1-1.2-4.8 1-6.5" stroke="#3D8B6B" stroke-width="3.8" stroke-linecap="round" />
  <path d="M37.5 15.5c2-2.1 1.2-4.8-1-6.5" stroke="#3D8B6B" stroke-width="3.8" stroke-linecap="round" />
</svg>
